<svg id="Capa_1" enable-background="new 0 0 512 512" height="512" viewBox="0 0 512 512" width="512" xmlns="http://www.w3.org/2000/svg"><circle cx="256" cy="256" fill="#fff5d7" r="208.419"/><path d="m431.45 297.091c14.269-8.026 43.858-24.67 60.671-34.127 5.448-3.065 5.407-10.886-.041-13.95l-60.614-34.095c-3.92-2.205-5.259-7.203-2.967-11.072l35.446-59.835c3.186-5.378-.689-12.172-6.939-12.102-19.289.216-53.236.597-69.606.78-4.497.05-8.138-3.591-8.088-8.088.184-16.37.564-50.317.78-69.606.07-6.251-6.724-10.125-12.102-6.939l-59.834 35.446c-3.87 2.292-8.859.969-11.064-2.951-8.026-14.269-24.67-43.858-34.127-60.671-3.065-5.448-10.886-5.407-13.95.041l-34.096 60.614c-2.205 3.92-7.203 5.259-11.072 2.967l-59.834-35.446c-5.378-3.186-12.172.689-12.102 6.939.216 19.289.597 53.235.78 69.606.05 4.497-3.591 8.138-8.088 8.088-16.37-.183-50.317-.564-69.606-.78-6.251-.07-10.125 6.724-6.939 12.102l35.446 59.835c2.292 3.87.969 8.859-2.951 11.064-14.269 8.026-43.858 24.67-60.671 34.127-5.448 3.065-5.407 10.886.041 13.95l60.614 34.095c3.92 2.205 5.259 7.203 2.967 11.072l-35.446 59.835c-3.186 5.378.689 12.172 6.94 12.102 19.289-.216 53.236-.597 69.606-.78 4.497-.05 8.138 3.591 8.088 8.088-.184 16.37-.564 50.317-.78 69.606-.07 6.251 6.724 10.125 12.102 6.94l59.835-35.446c3.87-2.292 8.859-.969 11.064 2.951 8.026 14.269 24.67 43.858 34.127 60.671 3.065 5.448 10.886 5.407 13.95-.041l34.095-60.614c2.205-3.92 7.203-5.259 11.072-2.967l59.835 35.446c5.378 3.186 12.172-.689 12.102-6.94-.216-19.289-.597-53.236-.78-69.606-.05-4.497 3.591-8.138 8.088-8.088 16.37.184 50.317.564 69.606.78 6.251.07 10.125-6.724 6.939-12.102l-35.446-59.835c-2.295-3.87-.971-8.859 2.949-11.064z" fill="#ffe07d"/><circle cx="256" cy="256" fill="#ffd064" r="160.323"/><path d="m192.425 272.032c-4.812 0-8.609 4.229-8.014 9.004 4.431 35.596 34.793 63.142 71.589 63.142s67.158-27.546 71.589-63.142c.594-4.775-3.202-9.004-8.014-9.004z" fill="#fff"/><path d="m276.04 396.282c-88.544 0-160.323-71.779-160.323-160.323 0-38.776 13.77-74.334 36.682-102.059-34.635 29.398-56.722 73.112-56.722 122.1 0 88.543 71.779 160.323 160.323 160.323 48.988 0 92.702-22.087 122.099-56.722-27.725 22.911-63.282 36.681-102.059 36.681z" fill="#ffc250"/><path d="m508.177 249.463-73.495-41.341 42.978-72.55c1.381-2.332 1.397-5.226.042-7.573-1.341-2.322-3.817-3.75-6.495-3.75-.028 0-.057 0-.084 0l-84.319.945.945-84.319c.03-2.709-1.403-5.225-3.75-6.579-2.346-1.355-5.241-1.338-7.573.042l-72.55 42.978-41.339-73.493c-1.329-2.362-3.828-3.823-6.537-3.823s-5.208 1.461-6.537 3.823l-41.341 73.495-72.55-42.978c-2.332-1.382-5.227-1.398-7.573-.042-2.347 1.354-3.78 3.87-3.75 6.579l.945 84.319-84.319-.945c-2.695-.045-5.225 1.403-6.579 3.75-1.355 2.347-1.339 5.241.042 7.573l42.978 72.55-73.493 41.339c-2.362 1.329-3.823 3.828-3.823 6.537s1.461 5.208 3.823 6.537l73.495 41.341-42.978 72.55c-1.381 2.332-1.397 5.226-.042 7.573 1.341 2.322 3.817 3.75 6.495 3.75h.084l84.319-.945-.945 84.319c-.03 2.709 1.403 5.225 3.75 6.579 1.161.67 2.456 1.005 3.75 1.005 1.322 0 2.645-.35 3.823-1.047l72.55-42.978 41.341 73.495c1.328 2.362 3.827 3.823 6.537 3.823s5.208-1.461 6.537-3.823l41.341-73.495 72.55 42.978c1.178.698 2.5 1.047 3.823 1.047 1.294 0 2.589-.334 3.75-1.005 2.347-1.354 3.78-3.87 3.75-6.579l-.945-84.319 84.319.945h.084c2.677 0 5.154-1.428 6.495-3.75 1.355-2.347 1.339-5.241-.042-7.573l-42.978-72.55 73.495-41.341c2.362-1.328 3.823-3.827 3.823-6.537s-1.465-5.208-3.827-6.537zm-85.744-50.093c-7.443-21.894-19.06-41.97-34.149-59.19l69.676-.781zm-166.433-176.572 34.161 60.731c-22.478-4.464-45.674-4.483-68.331.016zm-56.633 66.768c-21.994 7.466-42.039 19.092-59.188 34.104l-.781-69.629zm-75.689 50.613c-7.832 8.96-14.798 18.758-20.754 29.294-5.42 9.589-9.89 19.577-13.392 29.836l-35.491-59.911zm-40.192 81.684c-4.433 22.38-4.471 45.554.057 68.306l-60.745-34.169zm6.082 90.766c7.443 21.895 19.06 41.971 34.149 59.191l-69.676.781zm50.612 75.635c4.805 4.199 9.851 8.158 15.136 11.843 1.307.911 2.802 1.348 4.283 1.348 2.37 0 4.701-1.12 6.159-3.211 2.369-3.398 1.534-8.073-1.864-10.442-32.677-22.778-55.625-56.782-64.617-95.749-9.05-39.218-3.118-80.129 16.705-115.197 19.822-35.068 51.813-61.249 90.081-73.721 38.022-12.392 78.99-10.267 115.358 5.982 3.783 1.689 8.218-.006 9.907-3.788s-.006-8.217-3.788-9.907c-4.896-2.188-9.869-4.139-14.903-5.857l59.964-35.522-.781 69.695c-4.805-4.199-9.851-8.158-15.136-11.843-3.398-2.369-8.073-1.534-10.442 1.864s-1.534 8.073 1.864 10.442c32.677 22.778 55.625 56.782 64.617 95.749 9.05 39.218 3.118 80.129-16.705 115.197-19.822 35.067-51.813 61.249-90.081 73.721-38.022 12.392-78.99 10.267-115.358-5.982-3.782-1.689-8.218.006-9.907 3.788s.006 8.217 3.788 9.907c4.9 2.189 9.88 4.129 14.917 5.849l-59.978 35.53zm115.82 100.938-34.165-60.737c11.239 2.232 22.655 3.367 34.097 3.367 11.441 0 22.905-1.122 34.235-3.371zm56.632-66.768c21.994-7.466 42.039-19.092 59.188-34.104l.781 69.63zm75.69-50.613c7.832-8.96 14.798-18.758 20.754-29.294 5.42-9.589 9.89-19.577 13.392-29.836l35.491 59.911zm40.192-81.684c4.433-22.38 4.471-45.554-.056-68.306l60.744 34.169z"/><path d="m256 351.677c43.917 0 79.645-35.729 79.645-79.645 0-4.142-3.358-7.5-7.5-7.5h-144.29c-4.142 0-7.5 3.358-7.5 7.5 0 43.917 35.728 79.645 79.645 79.645zm64.212-72.145c-3.729 32.125-31.104 57.145-64.212 57.145s-60.484-25.02-64.212-57.145z"/><path d="m209.049 218.919c1.661 3.794 6.083 5.523 9.878 3.862 3.794-1.661 5.523-6.084 3.862-9.878-5.373-12.271-19.408-20.515-34.925-20.515-15.523 0-29.561 8.25-34.93 20.527-1.66 3.795.071 8.217 3.867 9.876.978.428 1.998.63 3.001.63 2.89 0 5.644-1.68 6.875-4.497 2.971-6.793 11.683-11.537 21.187-11.537 9.501 0 18.212 4.742 21.185 11.532z"/><path d="m293.075 222.791c.979.428 1.998.63 3.001.63 2.89 0 5.644-1.68 6.875-4.497 2.971-6.793 11.683-11.538 21.187-11.538 9.5 0 18.211 4.742 21.184 11.532 1.661 3.794 6.083 5.523 9.878 3.862 3.794-1.661 5.523-6.084 3.862-9.878-5.373-12.271-19.408-20.515-34.924-20.515-15.523 0-29.561 8.249-34.93 20.527-1.659 3.795.072 8.217 3.867 9.877z"/></svg>